<mxfile host="app.diagrams.net" modified="2022-04-12T04:06:06.712Z" agent="5.0 (Macintosh; Intel Mac OS X 10_15_7) AppleWebKit/537.36 (KHTML, like Gecko) Chrome/99.0.4844.84 Safari/537.36" etag="1uQ2dCthgaKJVfBm68zf" version="17.2.4" type="github">
  <diagram id="Vz9LhA0IV2-zWiPM725I" name="第 1 页">
    <mxGraphModel dx="946" dy="537" grid="1" gridSize="10" guides="1" tooltips="1" connect="1" arrows="1" fold="1" page="1" pageScale="1" pageWidth="827" pageHeight="1169" math="0" shadow="0">
      <root>
        <mxCell id="0" />
        <mxCell id="1" parent="0" />
        <mxCell id="izBo7d6PLdAHxQdOP3lT-6" style="edgeStyle=orthogonalEdgeStyle;rounded=0;orthogonalLoop=1;jettySize=auto;html=1;entryX=0;entryY=0.5;entryDx=0;entryDy=0;" edge="1" parent="1" source="izBo7d6PLdAHxQdOP3lT-4" target="izBo7d6PLdAHxQdOP3lT-5">
          <mxGeometry relative="1" as="geometry" />
        </mxCell>
        <mxCell id="izBo7d6PLdAHxQdOP3lT-4" value="&lt;span&gt;成员定制OKR&lt;/span&gt;" style="whiteSpace=wrap;html=1;" vertex="1" parent="1">
          <mxGeometry x="70" y="230" width="120" height="60" as="geometry" />
        </mxCell>
        <mxCell id="izBo7d6PLdAHxQdOP3lT-12" style="rounded=0;orthogonalLoop=1;jettySize=auto;html=1;exitX=0.75;exitY=1;exitDx=0;exitDy=0;entryX=0.5;entryY=0;entryDx=0;entryDy=0;" edge="1" parent="1" source="izBo7d6PLdAHxQdOP3lT-5" target="izBo7d6PLdAHxQdOP3lT-8">
          <mxGeometry relative="1" as="geometry" />
        </mxCell>
        <mxCell id="izBo7d6PLdAHxQdOP3lT-14" style="edgeStyle=none;rounded=0;orthogonalLoop=1;jettySize=auto;html=1;entryX=0;entryY=0.5;entryDx=0;entryDy=0;" edge="1" parent="1" source="izBo7d6PLdAHxQdOP3lT-5" target="izBo7d6PLdAHxQdOP3lT-13">
          <mxGeometry relative="1" as="geometry" />
        </mxCell>
        <mxCell id="izBo7d6PLdAHxQdOP3lT-5" value="技术+产品&lt;br&gt;leader review" style="whiteSpace=wrap;html=1;" vertex="1" parent="1">
          <mxGeometry x="270" y="230" width="120" height="60" as="geometry" />
        </mxCell>
        <mxCell id="izBo7d6PLdAHxQdOP3lT-10" style="edgeStyle=orthogonalEdgeStyle;rounded=0;orthogonalLoop=1;jettySize=auto;html=1;entryX=1;entryY=0.5;entryDx=0;entryDy=0;" edge="1" parent="1" source="izBo7d6PLdAHxQdOP3lT-8" target="izBo7d6PLdAHxQdOP3lT-9">
          <mxGeometry relative="1" as="geometry" />
        </mxCell>
        <mxCell id="izBo7d6PLdAHxQdOP3lT-8" value="技术+产品&lt;br&gt;评价难度系数" style="whiteSpace=wrap;html=1;" vertex="1" parent="1">
          <mxGeometry x="355" y="360" width="120" height="60" as="geometry" />
        </mxCell>
        <mxCell id="izBo7d6PLdAHxQdOP3lT-11" style="rounded=0;orthogonalLoop=1;jettySize=auto;html=1;entryX=0.25;entryY=1;entryDx=0;entryDy=0;" edge="1" parent="1" source="izBo7d6PLdAHxQdOP3lT-9" target="izBo7d6PLdAHxQdOP3lT-5">
          <mxGeometry relative="1" as="geometry" />
        </mxCell>
        <mxCell id="izBo7d6PLdAHxQdOP3lT-9" value="成员沟通调整" style="whiteSpace=wrap;html=1;" vertex="1" parent="1">
          <mxGeometry x="185" y="360" width="120" height="60" as="geometry" />
        </mxCell>
        <mxCell id="izBo7d6PLdAHxQdOP3lT-13" value="领导 review" style="whiteSpace=wrap;html=1;" vertex="1" parent="1">
          <mxGeometry x="470" y="230" width="120" height="60" as="geometry" />
        </mxCell>
      </root>
    </mxGraphModel>
  </diagram>
</mxfile>
